<?xml version="1.0" encoding="UTF-8"?>
<svg width="1200pt" height="1200pt" version="1.1" viewBox="0 0 1200 1200" xmlns="http://www.w3.org/2000/svg">
 <path d="m517.31 783.61c5.7656 13.969 12.703 27.422 20.766 40.172h-424.22c-27.844 0.046875-53.531-14.812-67.453-38.953-13.922-24.094-13.922-53.812 0.046874-77.906l327.71-567.71c13.922-24.188 39.656-39.047 67.5-39.047s53.625 14.859 67.5 39.047l175.78 304.78c-13.125 3.6562-25.969 8.3906-38.391 14.156l-172.31-298.78c-6.7031-11.672-19.125-18.891-32.578-18.891s-25.875 7.2188-32.578 18.891l-327.71 567.71c-3.375 5.7188-5.1562 12.234-5.1562 18.844 0.14062 13.406 7.2656 25.781 18.844 32.625 5.7188 3.3281 12.188 5.0625 18.797 5.0625zm235.31 130.31c-59.812 0-117.19-23.766-159.52-66.094-42.281-42.281-66.047-99.656-66.047-159.52 0-59.812 23.766-117.19 66.047-159.52 42.328-42.328 99.703-66.094 159.52-66.094 59.859 0 117.23 23.766 159.52 66.094 42.328 42.328 66.094 99.703 66.094 159.52 0 59.859-23.766 117.23-66.094 159.52-42.281 42.328-99.656 66.094-159.52 66.094zm130.45-95.062c40.594-40.547 60-97.688 52.547-154.55-7.4531-56.906-40.969-107.11-90.656-135.79-49.688-28.688-109.92-32.672-162.94-10.734-53.016 21.984-92.812 67.312-107.67 122.76-14.859 55.406-3.0938 114.61 31.828 160.13 34.969 45.516 89.062 72.188 146.44 72.188 48.938 0.09375 95.906-19.359 130.45-54zm-19.922-241.08c-52.688-52.5-135.14-60.562-196.92-19.172-61.828 41.391-85.828 120.71-57.328 189.42 28.5 68.719 101.58 107.77 174.52 93.234 72.984-14.531 125.53-78.562 125.58-152.95 0-41.438-16.5-81.234-45.844-110.53zm286.78 438.84-120-120c-4.9219-4.875-12.891-4.875-17.859 0l-50.531 51.375c-4.875 4.9688-4.875 12.938 0 17.859l120 120c19.312 17.625 49.031 16.969 67.5-1.5s19.125-48.188 1.5-67.5zm-153.1-143.02-6.6094-6.4688c-1.5938-1.6406-3.75-2.5312-6-2.5312s-4.4062 0.89062-6 2.5312l-3.6094 3.6094-24-24v-0.046875c-11.672 14.672-24.938 27.984-39.562 39.75l24 24-3.6094 3.6094c-1.6406 1.5469-2.5312 3.7031-2.5312 6 0 2.25 0.89062 4.4062 2.5312 6l6.4688 6.6094v-0.046875c1.0781-1.4531 2.2969-2.8594 3.6094-4.1719l51.141-51h-0.046875c1.3125-1.4062 2.7188-2.7188 4.2188-3.8438zm-498-185.29c-0.09375 22.875 2.9531 45.656 9 67.688h-393.98c-2.5312 0.046875-4.9688-0.89062-6.75-2.7188-1.7812-1.7812-2.7656-4.2188-2.7188-6.75-0.046875-1.6875 0.42188-3.375 1.3125-4.8281l327.74-568.31c1.5938-3 4.8281-4.8281 8.25-4.6875 3.4219-0.1875 6.6094 1.6406 8.1562 4.6875l171.84 297.47c-76.266 45.938-122.9 128.44-122.86 217.45zm-24.844-21.375c0-13.031-7.875-24.797-19.922-29.812-12.047-4.9688-25.969-2.2031-35.203 7.0312-9.2344 9.1875-11.953 23.109-6.9844 35.156 5.0156 12.047 16.781 19.922 29.812 19.922 17.859 0 32.297-14.438 32.297-32.297zm15.375-294.94c1.6875-13.641-2.5781-27.375-11.719-37.688-9.0938-10.266-22.172-16.172-35.953-16.172-13.734 0-26.812 5.9062-35.953 16.172-9.0938 10.312-13.359 24.047-11.672 37.688l13.922 192c0 18.75 15.188 33.938 33.938 33.938 18.797 0 33.984-15.188 33.984-33.938z" fill-rule="evenodd"/>
</svg>
